<?xml version="1.0" encoding="UTF-8"?>
<svg xmlns="http://www.w3.org/2000/svg" version="1.1" width="400" height="400" viewBox="0 0 400 400"><rect x="0" y="0" width="400" height="400" fill="#fefefe"/><g transform="scale(9.756)"><g transform="translate(4.000,4.000)"><path fill-rule="evenodd" d="M8 0L8 1L10 1L10 0ZM13 0L13 1L14 1L14 2L11 2L11 4L10 4L10 3L9 3L9 2L8 2L8 5L9 5L9 6L8 6L8 7L9 7L9 8L8 8L8 9L7 9L7 8L6 8L6 9L7 9L7 10L6 10L6 11L5 11L5 14L6 14L6 15L7 15L7 16L3 16L3 17L5 17L5 19L9 19L9 18L10 18L10 21L9 21L9 20L6 20L6 21L8 21L8 23L13 23L13 24L12 24L12 25L10 25L10 24L8 24L8 26L9 26L9 25L10 25L10 28L9 28L9 29L8 29L8 33L9 33L9 32L10 32L10 33L11 33L11 32L12 32L12 33L15 33L15 31L16 31L16 33L17 33L17 32L18 32L18 33L19 33L19 32L18 32L18 31L19 31L19 30L18 30L18 29L19 29L19 27L20 27L20 25L21 25L21 23L22 23L22 22L21 22L21 21L22 21L22 20L23 20L23 24L22 24L22 25L23 25L23 27L21 27L21 29L20 29L20 31L21 31L21 30L22 30L22 31L23 31L23 29L25 29L25 30L24 30L24 32L25 32L25 33L26 33L26 32L27 32L27 33L28 33L28 32L30 32L30 33L31 33L31 32L30 32L30 29L31 29L31 31L32 31L32 32L33 32L33 31L32 31L32 29L33 29L33 28L31 28L31 26L30 26L30 24L29 24L29 23L28 23L28 24L26 24L26 23L27 23L27 22L28 22L28 21L26 21L26 20L29 20L29 21L30 21L30 22L31 22L31 24L32 24L32 25L33 25L33 24L32 24L32 23L33 23L33 21L31 21L31 20L30 20L30 18L31 18L31 19L32 19L32 20L33 20L33 19L32 19L32 18L33 18L33 16L31 16L31 14L32 14L32 13L30 13L30 14L28 14L28 15L27 15L27 14L26 14L26 13L25 13L25 10L26 10L26 11L27 11L27 13L29 13L29 12L28 12L28 11L31 11L31 12L32 12L32 11L33 11L33 8L32 8L32 9L31 9L31 8L28 8L28 9L26 9L26 8L25 8L25 5L24 5L24 7L23 7L23 4L25 4L25 1L23 1L23 0L21 0L21 1L22 1L22 3L23 3L23 4L22 4L22 8L21 8L21 5L20 5L20 4L21 4L21 2L18 2L18 1L17 1L17 0L16 0L16 2L15 2L15 0ZM19 0L19 1L20 1L20 0ZM14 2L14 3L12 3L12 5L10 5L10 6L9 6L9 7L10 7L10 8L9 8L9 9L8 9L8 10L7 10L7 11L6 11L6 12L7 12L7 13L6 13L6 14L7 14L7 15L8 15L8 16L7 16L7 17L6 17L6 18L9 18L9 17L10 17L10 16L12 16L12 17L11 17L11 18L12 18L12 17L13 17L13 22L14 22L14 23L16 23L16 24L15 24L15 25L17 25L17 24L19 24L19 25L20 25L20 23L21 23L21 22L20 22L20 21L18 21L18 20L17 20L17 19L18 19L18 18L17 18L17 17L16 17L16 15L17 15L17 16L18 16L18 15L19 15L19 16L20 16L20 17L19 17L19 20L20 20L20 17L21 17L21 15L22 15L22 16L23 16L23 17L25 17L25 19L24 19L24 18L23 18L23 19L24 19L24 22L25 22L25 23L26 23L26 22L25 22L25 20L26 20L26 15L24 15L24 13L23 13L23 14L22 14L22 12L24 12L24 11L21 11L21 15L19 15L19 13L20 13L20 12L18 12L18 11L17 11L17 10L19 10L19 11L20 11L20 9L21 9L21 10L22 10L22 9L21 9L21 8L20 8L20 9L17 9L17 10L14 10L14 9L15 9L15 8L17 8L17 7L18 7L18 6L17 6L17 7L16 7L16 5L15 5L15 7L14 7L14 5L13 5L13 4L14 4L14 3L15 3L15 2ZM17 2L17 3L18 3L18 4L20 4L20 3L18 3L18 2ZM12 5L12 7L11 7L11 6L10 6L10 7L11 7L11 8L12 8L12 7L13 7L13 5ZM19 6L19 7L20 7L20 6ZM0 8L0 9L2 9L2 10L3 10L3 11L1 11L1 10L0 10L0 11L1 11L1 12L3 12L3 13L1 13L1 14L2 14L2 15L0 15L0 19L1 19L1 16L2 16L2 15L3 15L3 13L4 13L4 12L3 12L3 11L4 11L4 10L5 10L5 9L4 9L4 8ZM23 8L23 9L24 9L24 10L25 10L25 8ZM3 9L3 10L4 10L4 9ZM9 9L9 10L8 10L8 11L7 11L7 12L8 12L8 13L7 13L7 14L9 14L9 16L8 16L8 17L9 17L9 16L10 16L10 15L11 15L11 14L12 14L12 16L13 16L13 17L14 17L14 16L15 16L15 15L14 15L14 16L13 16L13 14L17 14L17 15L18 15L18 12L17 12L17 11L16 11L16 13L15 13L15 11L11 11L11 13L10 13L10 12L9 12L9 10L10 10L10 9ZM28 9L28 10L27 10L27 11L28 11L28 10L31 10L31 11L32 11L32 10L31 10L31 9ZM12 12L12 14L13 14L13 12ZM9 13L9 14L10 14L10 13ZM23 15L23 16L24 16L24 15ZM28 15L28 16L30 16L30 15ZM27 17L27 18L28 18L28 17ZM31 17L31 18L32 18L32 17ZM3 18L3 19L4 19L4 18ZM14 18L14 20L15 20L15 19L17 19L17 18ZM21 18L21 20L22 20L22 18ZM11 19L11 20L12 20L12 19ZM1 20L1 21L0 21L0 22L2 22L2 21L3 21L3 23L5 23L5 24L3 24L3 25L7 25L7 24L6 24L6 23L7 23L7 22L6 22L6 23L5 23L5 20ZM16 20L16 23L17 23L17 22L18 22L18 21L17 21L17 20ZM10 21L10 22L12 22L12 21ZM14 21L14 22L15 22L15 21ZM1 23L1 24L0 24L0 25L1 25L1 24L2 24L2 23ZM13 24L13 25L14 25L14 24ZM25 25L25 28L28 28L28 25ZM12 26L12 28L10 28L10 29L9 29L9 30L10 30L10 32L11 32L11 31L12 31L12 30L13 30L13 32L14 32L14 31L15 31L15 30L13 30L13 29L16 29L16 31L18 31L18 30L17 30L17 29L16 29L16 28L14 28L14 26ZM15 26L15 27L17 27L17 28L18 28L18 27L17 27L17 26ZM26 26L26 27L27 27L27 26ZM29 26L29 29L28 29L28 31L27 31L27 32L28 32L28 31L29 31L29 29L30 29L30 26ZM23 27L23 28L24 28L24 27ZM10 29L10 30L11 30L11 29ZM26 29L26 30L27 30L27 29ZM25 31L25 32L26 32L26 31ZM20 32L20 33L23 33L23 32ZM0 0L0 7L7 7L7 0ZM1 1L1 6L6 6L6 1ZM2 2L2 5L5 5L5 2ZM33 0L26 0L26 7L33 7ZM32 1L27 1L27 6L32 6ZM31 2L28 2L28 5L31 5ZM0 33L7 33L7 26L0 26ZM1 32L6 32L6 27L1 27ZM2 31L5 31L5 28L2 28Z" fill="#000000"/></g></g></svg>
