<?xml version="1.0" encoding="UTF-8"?>
<svg xmlns="http://www.w3.org/2000/svg" version="1.1" width="400" height="400" viewBox="0 0 400 400"><rect x="0" y="0" width="400" height="400" fill="#fefefe"/><g transform="scale(9.756)"><g transform="translate(4.000,4.000)"><path fill-rule="evenodd" d="M9 0L9 1L8 1L8 2L9 2L9 3L8 3L8 4L10 4L10 7L11 7L11 4L12 4L12 7L13 7L13 5L14 5L14 4L17 4L17 5L15 5L15 6L14 6L14 7L15 7L15 8L12 8L12 9L15 9L15 8L16 8L16 7L17 7L17 5L18 5L18 7L19 7L19 5L20 5L20 8L19 8L19 9L18 9L18 8L17 8L17 9L16 9L16 10L15 10L15 12L13 12L13 11L14 11L14 10L12 10L12 12L13 12L13 13L10 13L10 12L11 12L11 11L10 11L10 9L11 9L11 8L6 8L6 9L7 9L7 10L6 10L6 11L5 11L5 10L3 10L3 9L5 9L5 8L0 8L0 9L2 9L2 10L0 10L0 13L1 13L1 12L2 12L2 13L3 13L3 15L2 15L2 14L1 14L1 15L2 15L2 17L0 17L0 20L2 20L2 21L4 21L4 22L2 22L2 24L3 24L3 25L5 25L5 23L7 23L7 24L6 24L6 25L7 25L7 24L11 24L11 25L13 25L13 26L12 26L12 27L11 27L11 29L12 29L12 28L13 28L13 30L14 30L14 29L16 29L16 30L15 30L15 31L14 31L14 32L11 32L11 33L16 33L16 32L17 32L17 33L18 33L18 32L17 32L17 31L19 31L19 33L21 33L21 32L24 32L24 33L26 33L26 32L24 32L24 31L22 31L22 30L23 30L23 29L21 29L21 28L22 28L22 27L24 27L24 30L25 30L25 31L27 31L27 32L28 32L28 33L29 33L29 31L28 31L28 30L29 30L29 29L30 29L30 30L31 30L31 31L30 31L30 32L31 32L31 33L32 33L32 32L31 32L31 31L32 31L32 30L31 30L31 29L30 29L30 28L31 28L31 27L32 27L32 29L33 29L33 27L32 27L32 26L33 26L33 24L32 24L32 26L29 26L29 25L30 25L30 24L31 24L31 23L32 23L32 22L33 22L33 21L32 21L32 20L31 20L31 19L32 19L32 18L33 18L33 17L32 17L32 16L31 16L31 15L32 15L32 14L33 14L33 13L31 13L31 15L30 15L30 13L29 13L29 10L28 10L28 8L27 8L27 9L26 9L26 8L25 8L25 4L23 4L23 1L24 1L24 3L25 3L25 0L23 0L23 1L22 1L22 2L18 2L18 1L21 1L21 0L16 0L16 1L14 1L14 0L13 0L13 1L11 1L11 2L10 2L10 0ZM12 2L12 3L15 3L15 2ZM17 2L17 4L18 4L18 5L19 5L19 4L20 4L20 3L18 3L18 2ZM10 3L10 4L11 4L11 3ZM21 3L21 5L22 5L22 6L21 6L21 7L22 7L22 8L21 8L21 9L20 9L20 10L19 10L19 11L18 11L18 10L17 10L17 11L16 11L16 12L15 12L15 13L14 13L14 14L13 14L13 15L12 15L12 14L11 14L11 15L10 15L10 17L12 17L12 18L9 18L9 14L8 14L8 16L7 16L7 15L6 15L6 16L5 16L5 14L7 14L7 13L8 13L8 11L6 11L6 12L5 12L5 13L4 13L4 16L3 16L3 17L2 17L2 18L1 18L1 19L2 19L2 20L4 20L4 21L6 21L6 22L7 22L7 23L9 23L9 22L11 22L11 24L15 24L15 22L16 22L16 23L17 23L17 25L19 25L19 23L20 23L20 22L18 22L18 21L19 21L19 20L18 20L18 19L17 19L17 20L16 20L16 21L15 21L15 22L14 22L14 21L12 21L12 22L11 22L11 21L10 21L10 20L8 20L8 18L9 18L9 19L11 19L11 20L12 20L12 19L13 19L13 20L15 20L15 19L13 19L13 18L14 18L14 17L12 17L12 16L14 16L14 15L15 15L15 14L16 14L16 13L17 13L17 15L16 15L16 16L15 16L15 18L17 18L17 17L22 17L22 18L23 18L23 19L24 19L24 18L23 18L23 17L22 17L22 16L20 16L20 14L19 14L19 15L18 15L18 13L19 13L19 11L22 11L22 10L23 10L23 13L22 13L22 12L20 12L20 13L21 13L21 14L23 14L23 16L24 16L24 17L28 17L28 18L29 18L29 17L30 17L30 19L27 19L27 18L25 18L25 20L24 20L24 21L25 21L25 22L23 22L23 20L21 20L21 19L20 19L20 18L19 18L19 19L20 19L20 21L21 21L21 23L22 23L22 22L23 22L23 23L25 23L25 24L26 24L26 23L25 23L25 22L26 22L26 21L28 21L28 22L27 22L27 23L28 23L28 24L30 24L30 23L29 23L29 22L30 22L30 21L31 21L31 20L30 20L30 19L31 19L31 16L30 16L30 15L29 15L29 13L28 13L28 15L29 15L29 17L28 17L28 16L27 16L27 14L26 14L26 15L25 15L25 16L24 16L24 14L23 14L23 13L27 13L27 12L28 12L28 11L27 11L27 10L25 10L25 11L26 11L26 12L24 12L24 10L23 10L23 9L25 9L25 8L24 8L24 5L23 5L23 4L22 4L22 3ZM8 5L8 7L9 7L9 5ZM15 6L15 7L16 7L16 6ZM22 6L22 7L23 7L23 6ZM22 8L22 9L23 9L23 8ZM29 8L29 9L30 9L30 8ZM31 8L31 10L33 10L33 9L32 9L32 8ZM2 11L2 12L3 12L3 11ZM30 11L30 12L31 12L31 11ZM6 12L6 13L7 13L7 12ZM17 12L17 13L18 13L18 12ZM11 15L11 16L12 16L12 15ZM6 16L6 17L7 17L7 16ZM16 16L16 17L17 17L17 16ZM2 18L2 19L3 19L3 18ZM4 18L4 19L5 19L5 20L6 20L6 21L8 21L8 20L6 20L6 19L7 19L7 18L6 18L6 19L5 19L5 18ZM26 19L26 20L27 20L27 19ZM28 20L28 21L30 21L30 20ZM0 21L0 25L1 25L1 21ZM16 21L16 22L17 22L17 21ZM4 22L4 23L5 23L5 22ZM20 24L20 25L21 25L21 24ZM23 24L23 25L24 25L24 24ZM8 25L8 27L9 27L9 28L8 28L8 33L9 33L9 32L10 32L10 31L11 31L11 30L10 30L10 31L9 31L9 29L10 29L10 26L9 26L9 25ZM25 25L25 28L28 28L28 25ZM14 26L14 27L13 27L13 28L16 28L16 29L17 29L17 30L19 30L19 31L20 31L20 30L19 30L19 29L20 29L20 27L21 27L21 26L16 26L16 27L15 27L15 26ZM26 26L26 27L27 27L27 26ZM16 27L16 28L17 28L17 27ZM29 27L29 28L30 28L30 27ZM25 29L25 30L28 30L28 29ZM15 31L15 32L16 32L16 31ZM0 0L0 7L7 7L7 0ZM1 1L1 6L6 6L6 1ZM2 2L2 5L5 5L5 2ZM33 0L26 0L26 7L33 7ZM32 1L27 1L27 6L32 6ZM31 2L28 2L28 5L31 5ZM0 33L7 33L7 26L0 26ZM1 32L6 32L6 27L1 27ZM2 31L5 31L5 28L2 28Z" fill="#000000"/></g></g></svg>
