<?xml version="1.0" encoding="UTF-8"?>
<svg xmlns="http://www.w3.org/2000/svg" version="1.1" width="400" height="400" viewBox="0 0 400 400"><rect x="0" y="0" width="400" height="400" fill="#fefefe"/><g transform="scale(9.756)"><g transform="translate(4.000,4.000)"><path fill-rule="evenodd" d="M9 0L9 1L8 1L8 2L9 2L9 3L8 3L8 4L10 4L10 7L11 7L11 4L12 4L12 5L13 5L13 6L12 6L12 9L13 9L13 10L11 10L11 11L10 11L10 9L11 9L11 8L6 8L6 9L9 9L9 10L8 10L8 11L9 11L9 13L8 13L8 14L6 14L6 13L7 13L7 12L6 12L6 13L5 13L5 14L6 14L6 15L4 15L4 13L3 13L3 12L2 12L2 11L0 11L0 13L1 13L1 12L2 12L2 14L3 14L3 15L2 15L2 16L1 16L1 17L0 17L0 19L1 19L1 20L0 20L0 25L1 25L1 21L2 21L2 23L5 23L5 20L6 20L6 21L7 21L7 22L6 22L6 23L7 23L7 22L8 22L8 21L9 21L9 20L6 20L6 19L11 19L11 21L10 21L10 23L9 23L9 24L10 24L10 23L11 23L11 21L12 21L12 22L13 22L13 23L12 23L12 25L14 25L14 27L15 27L15 28L12 28L12 27L13 27L13 26L11 26L11 27L9 27L9 25L8 25L8 27L9 27L9 28L8 28L8 33L9 33L9 32L10 32L10 31L11 31L11 33L12 33L12 32L13 32L13 33L16 33L16 31L17 31L17 30L18 30L18 31L19 31L19 30L20 30L20 32L19 32L19 33L21 33L21 32L22 32L22 31L23 31L23 32L24 32L24 33L25 33L25 32L24 32L24 31L27 31L27 32L28 32L28 33L29 33L29 31L30 31L30 32L31 32L31 33L32 33L32 32L31 32L31 31L32 31L32 30L31 30L31 29L32 29L32 28L31 28L31 27L32 27L32 26L33 26L33 24L32 24L32 26L31 26L31 25L30 25L30 24L31 24L31 23L32 23L32 22L33 22L33 21L32 21L32 20L31 20L31 19L32 19L32 18L33 18L33 17L32 17L32 16L31 16L31 15L32 15L32 14L33 14L33 13L31 13L31 15L30 15L30 13L29 13L29 10L28 10L28 8L27 8L27 9L26 9L26 8L24 8L24 9L22 9L22 11L21 11L21 9L20 9L20 11L21 11L21 12L20 12L20 13L19 13L19 9L15 9L15 8L17 8L17 6L16 6L16 5L13 5L13 4L12 4L12 2L14 2L14 4L19 4L19 5L20 5L20 4L21 4L21 6L20 6L20 8L23 8L23 6L22 6L22 5L25 5L25 3L24 3L24 2L23 2L23 0L18 0L18 1L20 1L20 2L21 2L21 3L19 3L19 2L18 2L18 3L17 3L17 0L16 0L16 1L11 1L11 2L10 2L10 0ZM22 2L22 3L21 3L21 4L23 4L23 2ZM10 3L10 4L11 4L11 3ZM8 5L8 7L9 7L9 5ZM13 6L13 9L14 9L14 8L15 8L15 7L16 7L16 6L15 6L15 7L14 7L14 6ZM18 6L18 8L19 8L19 6ZM21 6L21 7L22 7L22 6ZM24 6L24 7L25 7L25 6ZM0 8L0 10L3 10L3 11L7 11L7 10L5 10L5 8ZM29 8L29 9L30 9L30 8ZM31 8L31 10L33 10L33 9L32 9L32 8ZM24 9L24 10L23 10L23 12L25 12L25 13L24 13L24 14L23 14L23 15L22 15L22 16L21 16L21 14L19 14L19 13L14 13L14 14L12 14L12 13L13 13L13 12L15 12L15 10L14 10L14 11L12 11L12 13L11 13L11 12L10 12L10 13L11 13L11 15L10 15L10 14L9 14L9 15L8 15L8 17L6 17L6 16L7 16L7 15L6 15L6 16L5 16L5 17L4 17L4 18L5 18L5 19L3 19L3 18L2 18L2 17L1 17L1 18L2 18L2 19L3 19L3 20L2 20L2 21L4 21L4 20L5 20L5 19L6 19L6 18L8 18L8 17L10 17L10 18L13 18L13 19L12 19L12 21L13 21L13 20L15 20L15 19L14 19L14 18L16 18L16 19L17 19L17 20L16 20L16 21L17 21L17 22L16 22L16 23L17 23L17 24L16 24L16 25L18 25L18 26L19 26L19 28L18 28L18 27L17 27L17 26L16 26L16 28L17 28L17 29L14 29L14 30L17 30L17 29L19 29L19 28L20 28L20 29L21 29L21 31L22 31L22 30L23 30L23 31L24 31L24 27L23 27L23 29L22 29L22 28L20 28L20 26L19 26L19 24L20 24L20 25L22 25L22 26L24 26L24 25L22 25L22 24L20 24L20 23L24 23L24 24L27 24L27 22L25 22L25 21L27 21L27 20L28 20L28 19L26 19L26 18L25 18L25 17L28 17L28 18L29 18L29 17L30 17L30 19L29 19L29 20L30 20L30 21L28 21L28 24L30 24L30 23L29 23L29 22L30 22L30 21L31 21L31 20L30 20L30 19L31 19L31 16L30 16L30 15L29 15L29 13L28 13L28 16L26 16L26 14L25 14L25 13L27 13L27 12L28 12L28 11L27 11L27 10L25 10L25 9ZM16 10L16 11L17 11L17 12L18 12L18 10ZM25 11L25 12L26 12L26 11ZM30 11L30 12L31 12L31 11ZM21 12L21 13L22 13L22 12ZM15 14L15 15L14 15L14 17L16 17L16 18L17 18L17 17L19 17L19 18L18 18L18 20L17 20L17 21L19 21L19 22L18 22L18 23L19 23L19 22L21 22L21 21L20 21L20 19L21 19L21 20L22 20L22 21L23 21L23 22L24 22L24 21L25 21L25 18L24 18L24 17L25 17L25 16L24 16L24 15L23 15L23 16L22 16L22 17L23 17L23 18L22 18L22 19L21 19L21 17L19 17L19 16L20 16L20 15L19 15L19 16L17 16L17 15L16 15L16 14ZM3 15L3 16L4 16L4 15ZM9 15L9 16L10 16L10 17L11 17L11 16L10 16L10 15ZM12 15L12 17L13 17L13 15ZM15 15L15 16L16 16L16 17L17 17L17 16L16 16L16 15ZM28 16L28 17L29 17L29 16ZM19 18L19 19L20 19L20 18ZM23 18L23 20L24 20L24 18ZM14 21L14 23L13 23L13 24L14 24L14 25L15 25L15 24L14 24L14 23L15 23L15 21ZM3 24L3 25L7 25L7 24ZM25 25L25 28L28 28L28 25ZM29 25L29 28L30 28L30 29L31 29L31 28L30 28L30 27L31 27L31 26L30 26L30 25ZM26 26L26 27L27 27L27 26ZM9 28L9 29L10 29L10 30L11 30L11 31L12 31L12 29L10 29L10 28ZM25 29L25 30L28 30L28 31L29 31L29 30L28 30L28 29ZM30 30L30 31L31 31L31 30ZM13 31L13 32L14 32L14 31ZM0 0L0 7L7 7L7 0ZM1 1L1 6L6 6L6 1ZM2 2L2 5L5 5L5 2ZM33 0L26 0L26 7L33 7ZM32 1L27 1L27 6L32 6ZM31 2L28 2L28 5L31 5ZM0 33L7 33L7 26L0 26ZM1 32L6 32L6 27L1 27ZM2 31L5 31L5 28L2 28Z" fill="#000000"/></g></g></svg>
