<?xml version="1.0" encoding="UTF-8"?>
<svg xmlns="http://www.w3.org/2000/svg" version="1.1" width="400" height="400" viewBox="0 0 400 400"><rect x="0" y="0" width="400" height="400" fill="#fefefe"/><g transform="scale(9.756)"><g transform="translate(4.000,4.000)"><path fill-rule="evenodd" d="M9 0L9 1L8 1L8 2L9 2L9 3L8 3L8 4L10 4L10 7L11 7L11 4L12 4L12 5L13 5L13 6L12 6L12 9L13 9L13 10L11 10L11 11L10 11L10 9L11 9L11 8L6 8L6 9L5 9L5 8L0 8L0 9L1 9L1 10L0 10L0 12L2 12L2 11L3 11L3 12L4 12L4 13L3 13L3 14L2 14L2 13L0 13L0 14L2 14L2 17L1 17L1 18L2 18L2 19L3 19L3 21L2 21L2 20L1 20L1 21L0 21L0 25L1 25L1 22L3 22L3 23L2 23L2 25L4 25L4 24L5 24L5 23L4 23L4 19L5 19L5 22L6 22L6 23L7 23L7 24L6 24L6 25L8 25L8 27L9 27L9 28L8 28L8 33L9 33L9 29L10 29L10 30L12 30L12 29L10 29L10 28L13 28L13 31L14 31L14 33L18 33L18 32L19 32L19 33L20 33L20 32L22 32L22 33L23 33L23 32L24 32L24 33L25 33L25 32L24 32L24 31L23 31L23 27L24 27L24 29L28 29L28 30L25 30L25 31L27 31L27 32L28 32L28 33L29 33L29 31L28 31L28 30L29 30L29 29L30 29L30 30L31 30L31 31L30 31L30 32L31 32L31 33L32 33L32 32L31 32L31 31L32 31L32 30L31 30L31 29L30 29L30 28L31 28L31 27L32 27L32 26L33 26L33 24L32 24L32 26L29 26L29 25L30 25L30 24L31 24L31 23L32 23L32 22L33 22L33 21L32 21L32 20L31 20L31 19L32 19L32 18L33 18L33 17L32 17L32 16L31 16L31 15L32 15L32 14L33 14L33 13L31 13L31 15L30 15L30 13L29 13L29 10L28 10L28 8L27 8L27 9L26 9L26 8L24 8L24 7L25 7L25 6L24 6L24 7L23 7L23 5L24 5L24 4L25 4L25 1L24 1L24 0L23 0L23 1L22 1L22 2L21 2L21 0L20 0L20 2L19 2L19 0L16 0L16 1L11 1L11 2L10 2L10 0ZM16 1L16 2L12 2L12 4L13 4L13 5L14 5L14 6L13 6L13 9L14 9L14 11L12 11L12 12L13 12L13 14L12 14L12 13L11 13L11 12L10 12L10 13L9 13L9 9L6 9L6 10L5 10L5 11L6 11L6 12L7 12L7 13L6 13L6 14L7 14L7 15L6 15L6 16L7 16L7 17L3 17L3 18L7 18L7 19L6 19L6 20L7 20L7 19L8 19L8 20L10 20L10 19L8 19L8 17L9 17L9 16L11 16L11 17L10 17L10 18L11 18L11 19L12 19L12 20L11 20L11 21L9 21L9 23L8 23L8 25L9 25L9 26L11 26L11 27L13 27L13 28L14 28L14 27L15 27L15 29L14 29L14 30L15 30L15 29L16 29L16 28L17 28L17 30L16 30L16 31L15 31L15 32L16 32L16 31L17 31L17 32L18 32L18 31L20 31L20 30L18 30L18 29L19 29L19 27L20 27L20 29L22 29L22 28L21 28L21 27L22 27L22 25L23 25L23 24L24 24L24 22L22 22L22 23L23 23L23 24L20 24L20 22L18 22L18 23L17 23L17 25L14 25L14 24L15 24L15 22L16 22L16 21L15 21L15 20L14 20L14 19L15 19L15 18L16 18L16 17L12 17L12 16L11 16L11 15L13 15L13 16L15 16L15 15L14 15L14 14L15 14L15 13L17 13L17 18L18 18L18 17L19 17L19 16L20 16L20 13L21 13L21 15L22 15L22 14L23 14L23 17L28 17L28 18L29 18L29 17L30 17L30 19L27 19L27 18L25 18L25 19L26 19L26 20L24 20L24 18L23 18L23 19L22 19L22 20L20 20L20 21L28 21L28 22L25 22L25 23L28 23L28 24L30 24L30 23L29 23L29 22L30 22L30 21L31 21L31 20L30 20L30 19L31 19L31 16L30 16L30 15L29 15L29 13L28 13L28 15L29 15L29 17L28 17L28 16L26 16L26 15L25 15L25 16L24 16L24 14L23 14L23 13L25 13L25 14L26 14L26 13L27 13L27 12L28 12L28 11L27 11L27 10L25 10L25 12L24 12L24 10L23 10L23 9L22 9L22 8L19 8L19 7L20 7L20 3L18 3L18 1ZM23 1L23 3L24 3L24 1ZM16 2L16 3L17 3L17 2ZM10 3L10 4L11 4L11 3ZM13 3L13 4L14 4L14 5L15 5L15 6L14 6L14 9L16 9L16 10L15 10L15 12L14 12L14 13L15 13L15 12L16 12L16 10L17 10L17 11L18 11L18 12L19 12L19 13L18 13L18 14L19 14L19 13L20 13L20 12L23 12L23 10L22 10L22 9L20 9L20 10L21 10L21 11L18 11L18 10L17 10L17 9L19 9L19 8L17 8L17 4L16 4L16 5L15 5L15 4L14 4L14 3ZM21 3L21 5L23 5L23 4L22 4L22 3ZM8 5L8 7L9 7L9 5ZM18 5L18 7L19 7L19 5ZM15 6L15 8L16 8L16 9L17 9L17 8L16 8L16 6ZM21 6L21 7L22 7L22 6ZM29 8L29 9L30 9L30 8ZM31 8L31 10L33 10L33 9L32 9L32 8ZM3 9L3 11L4 11L4 9ZM6 10L6 11L7 11L7 12L8 12L8 11L7 11L7 10ZM30 11L30 12L31 12L31 11ZM7 13L7 14L8 14L8 15L9 15L9 13ZM10 13L10 14L11 14L11 13ZM3 14L3 16L5 16L5 14ZM0 15L0 16L1 16L1 15ZM18 15L18 16L19 16L19 15ZM20 17L20 18L19 18L19 19L21 19L21 17ZM12 18L12 19L14 19L14 18ZM17 19L17 20L18 20L18 21L19 21L19 20L18 20L18 19ZM12 20L12 21L11 21L11 22L12 22L12 23L13 23L13 22L15 22L15 21L14 21L14 20ZM28 20L28 21L30 21L30 20ZM6 21L6 22L7 22L7 21ZM12 21L12 22L13 22L13 21ZM3 23L3 24L4 24L4 23ZM10 23L10 24L9 24L9 25L11 25L11 26L13 26L13 25L11 25L11 23ZM18 25L18 26L17 26L17 27L19 27L19 26L20 26L20 27L21 27L21 25ZM25 25L25 28L28 28L28 25ZM15 26L15 27L16 27L16 26ZM26 26L26 27L27 27L27 26ZM29 27L29 28L30 28L30 27ZM32 28L32 29L33 29L33 28ZM10 31L10 33L11 33L11 32L12 32L12 31ZM22 31L22 32L23 32L23 31ZM0 0L0 7L7 7L7 0ZM1 1L1 6L6 6L6 1ZM2 2L2 5L5 5L5 2ZM33 0L26 0L26 7L33 7ZM32 1L27 1L27 6L32 6ZM31 2L28 2L28 5L31 5ZM0 33L7 33L7 26L0 26ZM1 32L6 32L6 27L1 27ZM2 31L5 31L5 28L2 28Z" fill="#000000"/></g></g></svg>
